<svg width="2432" height="1268" viewBox="0 0 2432 1268" fill="none" xmlns="http://www.w3.org/2000/svg">
<g opacity="0.06">
<path d="M532.052 76.118C551.999 76.118 569.672 83.9727 585.071 99.682C600.471 115.288 608.17 133.375 608.17 153.941C608.17 175.749 600.212 194.197 584.296 209.286C568.483 224.272 548.382 231.765 523.991 231.765C499.703 231.765 479.601 224.272 463.685 209.286C447.872 194.197 439.966 175.749 439.966 153.941C439.966 145.053 441.516 136.113 444.617 127.122C447.821 118.13 451.025 111.412 454.229 106.968L459.034 99.9921L520.89 4.65058H570.189L522.44 77.6682C525.231 76.6347 528.435 76.118 532.052 76.118ZM551.275 179.986C558.51 172.958 562.127 164.277 562.127 153.941C562.127 143.606 558.51 134.925 551.275 127.897C544.144 120.869 535.049 117.355 523.991 117.355C513.035 117.355 503.94 120.869 496.706 127.897C489.575 134.925 486.009 143.606 486.009 153.941C486.009 164.277 489.575 172.958 496.706 179.986C503.94 186.91 513.035 190.373 523.991 190.373C535.049 190.373 544.144 186.91 551.275 179.986Z" fill="#1F462A"/>
<path d="M364.726 79.3735C386.12 79.3735 403.896 86.4531 418.055 100.612C432.318 114.771 439.449 132.548 439.449 153.941C439.449 176.369 431.646 194.972 416.04 209.751C400.537 224.427 380.28 231.765 355.269 231.765C344.727 231.765 334.599 230.525 324.884 228.044C315.272 225.667 307.418 222.773 301.32 219.363C295.326 215.952 290.055 212.593 285.507 209.286C280.96 205.875 277.756 202.878 275.896 200.294L272.64 196.729L301.32 166.654C302.767 168.307 304.782 170.374 307.366 172.855C310.053 175.232 315.841 178.487 324.729 182.621C333.617 186.755 342.712 188.822 352.014 188.822C363.899 188.822 373.201 185.619 379.919 179.211C386.74 172.7 390.15 164.277 390.15 153.941C390.15 143.606 386.533 134.925 379.298 127.897C372.167 120.869 363.072 117.355 352.014 117.355C344.366 117.355 337.545 118.802 331.55 121.696C325.556 124.59 321.37 127.484 318.993 130.377L315.582 134.873L282.252 131.773L290.158 4.65058H425.031V46.0428H333.1L329.845 87.2799C338.32 82.009 349.947 79.3735 364.726 79.3735Z" fill="#1F462A"/>
<path d="M178.487 155.492C158.54 155.492 140.815 147.689 125.312 132.083C109.913 116.373 102.213 98.2354 102.213 77.6685C102.213 55.8613 110.12 37.4648 125.933 22.4789C141.849 7.49296 161.95 0 186.238 0C210.629 0 230.782 7.49296 246.698 22.4789C262.615 37.4648 270.573 55.8613 270.573 77.6685C270.573 86.5567 268.971 95.5482 265.767 104.643C262.563 113.635 259.359 120.353 256.155 124.797L251.504 131.773L189.494 226.959H140.35L187.943 153.942C185.256 154.975 182.104 155.492 178.487 155.492ZM158.953 51.779C151.822 58.7035 148.256 67.385 148.256 77.8235C148.256 88.1586 151.822 96.8401 158.953 103.868C166.188 110.793 175.283 114.255 186.238 114.255C197.297 114.255 206.443 110.793 213.678 103.868C220.912 96.8401 224.53 88.1586 224.53 77.8235C224.53 67.385 220.912 58.7035 213.678 51.779C206.443 44.7511 197.297 41.2371 186.238 41.2371C175.283 41.2371 166.188 44.7511 158.953 51.779Z" fill="#1F462A"/>
<path d="M46.0429 4.65058H85.7297V226.959H38.1365V65.1111H-0.000100993V34.8808C6.82108 34.054 13.0738 32.4521 18.7581 30.075C24.4425 27.5946 28.8349 24.9591 31.9354 22.1686C35.1393 19.3781 37.8264 16.691 39.9968 14.1072C42.2705 11.4201 43.8725 9.14636 44.8027 7.28604L46.0429 4.65058Z" fill="#1F462A"/>
<path d="M1139.86 101.818C1159.81 101.818 1177.48 109.673 1192.88 125.382C1208.28 140.988 1215.98 159.075 1215.98 179.641C1215.98 201.449 1208.02 219.897 1192.11 234.986C1176.3 249.972 1156.19 257.465 1131.8 257.465C1107.51 257.465 1087.41 249.972 1071.5 234.986C1055.68 219.897 1047.78 201.449 1047.78 179.641C1047.78 170.753 1049.33 161.813 1052.43 152.822C1055.63 143.83 1058.84 137.112 1062.04 132.668L1066.85 125.692L1128.7 30.3506H1178L1130.25 103.368C1133.04 102.335 1136.25 101.818 1139.86 101.818ZM1159.09 205.686C1166.32 198.658 1169.94 189.977 1169.94 179.641C1169.94 169.306 1166.32 160.625 1159.09 153.597C1151.96 146.569 1142.86 143.055 1131.8 143.055C1120.85 143.055 1111.75 146.569 1104.52 153.597C1097.39 160.625 1093.82 169.306 1093.82 179.641C1093.82 189.977 1097.39 198.658 1104.52 205.686C1111.75 212.61 1120.85 216.073 1131.8 216.073C1142.86 216.073 1151.96 212.61 1159.09 205.686Z" fill="#1F462A"/>
<path d="M972.538 105.074C993.931 105.074 1011.71 112.153 1025.87 126.312C1040.13 140.471 1047.26 158.248 1047.26 179.641C1047.26 202.069 1039.46 220.672 1023.85 235.451C1008.35 250.127 988.092 257.465 963.081 257.465C952.539 257.465 942.411 256.225 932.696 253.744C923.084 251.367 915.229 248.473 909.132 245.063C903.137 241.652 897.866 238.293 893.319 234.986C888.771 231.575 885.568 228.578 883.707 225.994L880.452 222.429L909.132 192.354C910.579 194.007 912.594 196.074 915.178 198.555C917.865 200.932 923.652 204.187 932.541 208.321C941.429 212.455 950.524 214.522 959.825 214.522C971.711 214.522 981.012 211.319 987.73 204.911C994.551 198.4 997.962 189.977 997.962 179.641C997.962 169.306 994.345 160.625 987.11 153.597C979.979 146.569 970.884 143.055 959.825 143.055C952.177 143.055 945.356 144.502 939.362 147.396C933.367 150.29 929.182 153.184 926.805 156.077L923.394 160.573L890.063 157.473L897.97 30.3506H1032.84V71.7427H940.912L937.657 112.98C946.131 107.709 957.758 105.074 972.538 105.074Z" fill="#1F462A"/>
<path d="M786.298 181.192C766.352 181.192 748.627 173.389 733.124 157.783C717.725 142.073 710.025 123.935 710.025 103.368C710.025 81.5613 717.932 63.1648 733.744 48.1789C749.66 33.1929 769.762 25.7 794.05 25.7C818.441 25.7 838.594 33.1929 854.51 48.1789C870.426 63.1648 878.384 81.5613 878.384 103.368C878.384 112.257 876.782 121.248 873.578 130.343C870.375 139.335 867.171 146.052 863.967 150.497L859.316 157.473L797.305 252.659H748.162L795.755 179.642C793.068 180.675 789.916 181.192 786.298 181.192ZM766.765 77.4789C759.634 84.4035 756.068 93.085 756.068 103.523C756.068 113.859 759.634 122.54 766.765 129.568C774 136.493 783.094 139.955 794.05 139.955C805.108 139.955 814.255 136.493 821.489 129.568C828.724 122.54 832.341 113.859 832.341 103.523C832.341 93.085 828.724 84.4035 821.489 77.4789C814.255 70.4511 805.108 66.9371 794.05 66.9371C783.094 66.9371 774 70.4511 766.765 77.4789Z" fill="#1F462A"/>
<path d="M653.855 30.3506H693.541V252.659H645.948V90.811H607.812V60.5808C614.633 59.754 620.886 58.152 626.57 55.775C632.254 53.2945 636.647 50.6591 639.747 47.8686C642.951 45.0781 645.638 42.391 647.809 39.8072C650.082 37.1201 651.684 34.8463 652.614 32.986L653.855 30.3506Z" fill="#1F462A"/>
<path d="M1747.68 127.519C1767.62 127.519 1785.3 135.373 1800.69 151.083C1816.09 166.689 1823.79 184.775 1823.79 205.342C1823.79 227.149 1815.84 245.597 1799.92 260.687C1784.11 275.673 1764 283.166 1739.61 283.166C1715.33 283.166 1695.22 275.673 1679.31 260.687C1663.5 245.597 1655.59 227.149 1655.59 205.342C1655.59 196.454 1657.14 187.514 1660.24 178.522C1663.44 169.531 1666.65 162.813 1669.85 158.369L1674.66 151.393L1736.51 56.0512H1785.81L1738.06 129.069C1740.85 128.035 1744.06 127.519 1747.68 127.519ZM1766.9 231.387C1774.13 224.359 1777.75 215.677 1777.75 205.342C1777.75 195.007 1774.13 186.325 1766.9 179.298C1759.77 172.27 1750.67 168.756 1739.61 168.756C1728.66 168.756 1719.56 172.27 1712.33 179.298C1705.2 186.325 1701.63 195.007 1701.63 205.342C1701.63 215.677 1705.2 224.359 1712.33 231.387C1719.56 238.311 1728.66 241.773 1739.61 241.773C1750.67 241.773 1759.77 238.311 1766.9 231.387Z" fill="#1F462A"/>
<path d="M1580.35 130.774C1601.74 130.774 1619.52 137.854 1633.68 152.013C1647.94 166.172 1655.07 183.948 1655.07 205.342C1655.07 227.769 1647.27 246.372 1631.66 261.152C1616.16 275.828 1595.9 283.166 1570.89 283.166C1560.35 283.166 1550.22 281.925 1540.51 279.445C1530.9 277.068 1523.04 274.174 1516.94 270.763C1510.95 267.353 1505.68 263.994 1501.13 260.687C1496.58 257.276 1493.38 254.279 1491.52 251.695L1488.26 248.129L1516.94 218.054C1518.39 219.708 1520.41 221.775 1522.99 224.255C1525.68 226.632 1531.46 229.888 1540.35 234.022C1549.24 238.156 1558.34 240.223 1567.64 240.223C1579.52 240.223 1588.82 237.019 1595.54 230.611C1602.36 224.1 1605.77 215.677 1605.77 205.342C1605.77 195.007 1602.16 186.325 1594.92 179.298C1587.79 172.27 1578.7 168.756 1567.64 168.756C1559.99 168.756 1553.17 170.203 1547.17 173.096C1541.18 175.99 1536.99 178.884 1534.62 181.778L1531.21 186.274L1497.87 183.173L1505.78 56.0512H1640.65V97.4433H1548.72L1545.47 138.68C1553.94 133.41 1565.57 130.774 1580.35 130.774Z" fill="#1F462A"/>
<path d="M1394.11 206.893C1374.16 206.893 1356.44 199.09 1340.94 183.483C1325.54 167.774 1317.84 149.636 1317.84 129.069C1317.84 107.262 1325.74 88.8654 1341.56 73.8795C1357.47 58.8936 1377.57 51.4006 1401.86 51.4006C1426.25 51.4006 1446.41 58.8936 1462.32 73.8795C1478.24 88.8654 1486.2 107.262 1486.2 129.069C1486.2 137.957 1484.59 146.949 1481.39 156.044C1478.19 165.035 1474.98 171.753 1471.78 176.197L1467.13 183.173L1405.12 278.36H1355.97L1403.57 205.342C1400.88 206.376 1397.73 206.893 1394.11 206.893ZM1374.58 103.18C1367.45 110.104 1363.88 118.786 1363.88 129.224C1363.88 139.559 1367.45 148.241 1374.58 155.269C1381.81 162.193 1390.91 165.655 1401.86 165.655C1412.92 165.655 1422.07 162.193 1429.3 155.269C1436.54 148.241 1440.15 139.559 1440.15 129.224C1440.15 118.786 1436.54 110.104 1429.3 103.18C1422.07 96.1517 1412.92 92.6377 1401.86 92.6377C1390.91 92.6377 1381.81 96.1517 1374.58 103.18Z" fill="#1F462A"/>
<path d="M1261.67 56.0512H1301.35V278.36H1253.76V116.512H1215.62V86.2814C1222.44 85.4546 1228.7 83.8527 1234.38 81.4756C1240.07 78.9951 1244.46 76.3597 1247.56 73.5692C1250.76 70.7787 1253.45 68.0916 1255.62 65.5078C1257.89 62.8207 1259.5 60.5469 1260.43 58.6866L1261.67 56.0512Z" fill="#1F462A"/>
<path d="M2355.49 153.219C2375.43 153.219 2393.11 161.073 2408.51 176.783C2423.9 192.389 2431.6 210.475 2431.6 231.042C2431.6 252.849 2423.65 271.298 2407.73 286.387C2391.92 301.373 2371.82 308.866 2347.42 308.866C2323.14 308.866 2303.04 301.373 2287.12 286.387C2271.31 271.298 2263.4 252.849 2263.4 231.042C2263.4 222.154 2264.95 213.214 2268.05 204.223C2271.26 195.231 2274.46 188.513 2277.66 184.069L2282.47 177.093L2344.32 81.7514H2393.62L2345.87 154.769C2348.67 153.736 2351.87 153.219 2355.49 153.219ZM2374.71 257.087C2381.94 250.059 2385.56 241.377 2385.56 231.042C2385.56 220.707 2381.94 212.026 2374.71 204.998C2367.58 197.97 2358.48 194.456 2347.42 194.456C2336.47 194.456 2327.37 197.97 2320.14 204.998C2313.01 212.026 2309.44 220.707 2309.44 231.042C2309.44 241.377 2313.01 250.059 2320.14 257.087C2327.37 264.011 2336.47 267.474 2347.42 267.474C2358.48 267.474 2367.58 264.011 2374.71 257.087Z" fill="#1F462A"/>
<path d="M2188.16 156.474C2209.55 156.474 2227.33 163.554 2241.49 177.713C2255.75 191.872 2262.88 209.649 2262.88 231.042C2262.88 253.469 2255.08 272.073 2239.47 286.852C2223.97 301.528 2203.71 308.866 2178.7 308.866C2168.16 308.866 2158.03 307.626 2148.32 305.145C2138.71 302.768 2130.85 299.874 2124.75 296.464C2118.76 293.053 2113.49 289.694 2108.94 286.387C2104.39 282.976 2101.19 279.979 2099.33 277.395L2096.07 273.83L2124.75 243.754C2126.2 245.408 2128.22 247.475 2130.8 249.956C2133.49 252.333 2139.28 255.588 2148.16 259.722C2157.05 263.856 2166.15 265.923 2175.45 265.923C2187.33 265.923 2196.64 262.719 2203.35 256.312C2210.17 249.801 2213.58 241.377 2213.58 231.042C2213.58 220.707 2209.97 212.026 2202.73 204.998C2195.6 197.97 2186.51 194.456 2175.45 194.456C2167.8 194.456 2160.98 195.903 2154.98 198.797C2148.99 201.691 2144.8 204.584 2142.43 207.478L2139.02 211.974L2105.69 208.873L2113.59 81.7514H2248.47V123.144H2156.53L2153.28 164.381C2161.75 159.11 2173.38 156.474 2188.16 156.474Z" fill="#1F462A"/>
<path d="M2001.92 232.593C1981.97 232.593 1964.25 224.79 1948.75 209.184C1933.35 193.474 1925.65 175.336 1925.65 154.769C1925.65 132.962 1933.55 114.566 1949.37 99.5797C1965.28 84.5938 1985.38 77.1008 2009.67 77.1008C2034.06 77.1008 2054.22 84.5938 2070.13 99.5797C2086.05 114.566 2094.01 132.962 2094.01 154.769C2094.01 163.657 2092.41 172.649 2089.2 181.744C2086 190.736 2082.79 197.453 2079.59 201.897L2074.94 208.874L2012.93 304.06H1963.78L2011.38 231.042C2008.69 232.076 2005.54 232.593 2001.92 232.593ZM1982.39 128.88C1975.26 135.804 1971.69 144.486 1971.69 154.924C1971.69 165.259 1975.26 173.941 1982.39 180.969C1989.62 187.893 1998.72 191.356 2009.67 191.356C2020.73 191.356 2029.88 187.893 2037.11 180.969C2044.35 173.941 2047.96 165.259 2047.96 154.924C2047.96 144.486 2044.35 135.804 2037.11 128.88C2029.88 121.852 2020.73 118.338 2009.67 118.338C1998.72 118.338 1989.62 121.852 1982.39 128.88Z" fill="#1F462A"/>
<path d="M1869.48 81.7514H1909.16V304.06H1861.57V142.212H1823.43V111.982C1830.26 111.155 1836.51 109.553 1842.19 107.176C1847.88 104.695 1852.27 102.06 1855.37 99.2694C1858.57 96.479 1861.26 93.7918 1863.43 91.208C1865.7 88.5209 1867.31 86.2472 1868.24 84.3869L1869.48 81.7514Z" fill="#1F462A"/>
<path d="M532.052 316.027C551.999 316.027 569.672 323.882 585.071 339.591C600.47 355.197 608.17 373.284 608.17 393.851C608.17 415.658 600.212 434.106 584.296 449.195C568.483 464.181 548.381 471.674 523.991 471.674C499.703 471.674 479.601 464.181 463.685 449.195C447.872 434.106 439.966 415.658 439.966 393.851C439.966 384.962 441.516 376.022 444.617 367.031C447.821 358.039 451.025 351.322 454.228 346.877L459.034 339.901L520.89 244.56H570.189L522.44 317.577C525.231 316.544 528.435 316.027 532.052 316.027ZM551.275 419.895C558.51 412.867 562.127 404.186 562.127 393.851C562.127 383.515 558.51 374.834 551.275 367.806C544.144 360.778 535.049 357.264 523.991 357.264C513.035 357.264 503.94 360.778 496.706 367.806C489.575 374.834 486.009 383.515 486.009 393.851C486.009 404.186 489.575 412.867 496.706 419.895C503.94 426.82 513.035 430.282 523.991 430.282C535.049 430.282 544.144 426.82 551.275 419.895Z" fill="#1F462A"/>
<path d="M364.726 319.283C386.12 319.283 403.896 326.362 418.055 340.521C432.318 354.68 439.449 372.457 439.449 393.851C439.449 416.278 431.646 434.881 416.04 449.66C400.537 464.336 380.28 471.674 355.269 471.674C344.727 471.674 334.599 470.434 324.884 467.953C315.272 465.576 307.418 462.682 301.32 459.272C295.325 455.861 290.055 452.502 285.507 449.195C280.96 445.785 277.756 442.787 275.895 440.204L272.64 436.638L301.32 406.563C302.767 408.216 304.782 410.283 307.366 412.764C310.053 415.141 315.841 418.396 324.729 422.531C333.617 426.665 342.712 428.732 352.014 428.732C363.899 428.732 373.201 425.528 379.918 419.12C386.74 412.609 390.15 404.186 390.15 393.851C390.15 383.515 386.533 374.834 379.298 367.806C372.167 360.778 363.072 357.264 352.014 357.264C344.366 357.264 337.544 358.711 331.55 361.605C325.556 364.499 321.37 367.393 318.993 370.286L315.582 374.782L282.252 371.682L290.158 244.56H425.031V285.952H333.1L329.845 327.189C338.32 321.918 349.947 319.283 364.726 319.283Z" fill="#1F462A"/>
<path d="M178.487 395.401C158.54 395.401 140.815 387.598 125.312 371.992C109.913 356.283 102.213 338.144 102.213 317.578C102.213 295.77 110.12 277.374 125.932 262.388C141.849 247.402 161.95 239.909 186.238 239.909C210.629 239.909 230.782 247.402 246.698 262.388C262.614 277.374 270.572 295.77 270.572 317.578C270.572 326.466 268.971 335.457 265.767 344.552C262.563 353.544 259.359 360.262 256.155 364.706L251.504 371.682L189.493 466.868H140.35L187.943 393.851C185.256 394.884 182.104 395.401 178.487 395.401ZM158.953 291.688C151.822 298.613 148.256 307.294 148.256 317.733C148.256 328.068 151.822 336.749 158.953 343.777C166.188 350.702 175.283 354.164 186.238 354.164C197.296 354.164 206.443 350.702 213.678 343.777C220.912 336.749 224.53 328.068 224.53 317.733C224.53 307.294 220.912 298.613 213.678 291.688C206.443 284.66 197.296 281.146 186.238 281.146C175.283 281.146 166.188 284.66 158.953 291.688Z" fill="#1F462A"/>
<path d="M46.0428 244.56H85.7296V466.868H38.1364V305.02H-0.000201987V274.79C6.82098 273.963 13.0737 272.361 18.758 269.984C24.4424 267.504 28.8348 264.868 31.9353 262.078C35.1392 259.287 37.8263 256.6 39.9967 254.016C42.2704 251.329 43.8724 249.055 44.8026 247.195L46.0428 244.56Z" fill="#1F462A"/>
<path d="M1139.86 341.727C1159.81 341.727 1177.48 349.582 1192.88 365.291C1208.28 380.897 1215.98 398.984 1215.98 419.55C1215.98 441.358 1208.02 459.806 1192.11 474.895C1176.29 489.881 1156.19 497.374 1131.8 497.374C1107.51 497.374 1087.41 489.881 1071.5 474.895C1055.68 459.806 1047.78 441.358 1047.78 419.55C1047.78 410.662 1049.33 401.722 1052.43 392.731C1055.63 383.739 1058.84 377.021 1062.04 372.577L1066.85 365.601L1128.7 270.26H1178L1130.25 343.277C1133.04 342.244 1136.25 341.727 1139.86 341.727ZM1159.09 445.595C1166.32 438.567 1169.94 429.886 1169.94 419.55C1169.94 409.215 1166.32 400.534 1159.09 393.506C1151.96 386.478 1142.86 382.964 1131.8 382.964C1120.85 382.964 1111.75 386.478 1104.52 393.506C1097.39 400.534 1093.82 409.215 1093.82 419.55C1093.82 429.886 1097.39 438.567 1104.52 445.595C1111.75 452.519 1120.85 455.982 1131.8 455.982C1142.86 455.982 1151.96 452.519 1159.09 445.595Z" fill="#1F462A"/>
<path d="M972.537 344.983C993.931 344.983 1011.71 352.062 1025.87 366.221C1040.13 380.38 1047.26 398.157 1047.26 419.55C1047.26 441.978 1039.46 460.581 1023.85 475.36C1008.35 490.036 988.092 497.374 963.081 497.374C952.539 497.374 942.411 496.134 932.696 493.653C923.084 491.276 915.229 488.382 909.132 484.972C903.137 481.561 897.866 478.202 893.319 474.895C888.771 471.484 885.567 468.487 883.707 465.903L880.452 462.338L909.132 432.263C910.578 433.916 912.594 435.983 915.178 438.464C917.865 440.841 923.652 444.096 932.541 448.23C941.429 452.364 950.524 454.431 959.825 454.431C971.711 454.431 981.012 451.228 987.73 444.82C994.551 438.309 997.962 429.886 997.962 419.55C997.962 409.215 994.345 400.534 987.11 393.506C979.979 386.478 970.884 382.964 959.825 382.964C952.177 382.964 945.356 384.411 939.362 387.305C933.367 390.199 929.182 393.093 926.805 395.986L923.394 400.482L890.063 397.382L897.97 270.26H1032.84V311.652H940.912L937.656 352.889C946.131 347.618 957.758 344.983 972.537 344.983Z" fill="#1F462A"/>
<path d="M786.298 421.101C766.351 421.101 748.627 413.298 733.124 397.692C717.725 381.982 710.025 363.844 710.025 343.277C710.025 321.47 717.931 303.074 733.744 288.088C749.66 273.102 769.762 265.609 794.05 265.609C818.44 265.609 838.594 273.102 854.51 288.088C870.426 303.074 878.384 321.47 878.384 343.277C878.384 352.166 876.782 361.157 873.578 370.252C870.374 379.244 867.171 385.962 863.967 390.406L859.316 397.382L797.305 492.568H748.162L795.755 419.551C793.068 420.584 789.916 421.101 786.298 421.101ZM766.765 317.388C759.634 324.313 756.068 332.994 756.068 343.432C756.068 353.768 759.634 362.449 766.765 369.477C773.999 376.402 783.094 379.864 794.05 379.864C805.108 379.864 814.255 376.402 821.489 369.477C828.724 362.449 832.341 353.768 832.341 343.432C832.341 332.994 828.724 324.313 821.489 317.388C814.255 310.36 805.108 306.846 794.05 306.846C783.094 306.846 773.999 310.36 766.765 317.388Z" fill="#1F462A"/>
<path d="M653.854 270.26H693.541V492.568H645.948V330.72H607.812V300.49C614.633 299.663 620.885 298.061 626.57 295.684C632.254 293.204 636.647 290.568 639.747 287.778C642.951 284.987 645.638 282.3 647.808 279.716C650.082 277.029 651.684 274.755 652.614 272.895L653.854 270.26Z" fill="#1F462A"/>
<path d="M1747.68 367.428C1767.62 367.428 1785.3 375.282 1800.69 390.992C1816.09 406.598 1823.79 424.684 1823.79 445.251C1823.79 467.058 1815.84 485.506 1799.92 500.596C1784.11 515.582 1764 523.075 1739.61 523.075C1715.33 523.075 1695.22 515.582 1679.31 500.596C1663.5 485.506 1655.59 467.058 1655.59 445.251C1655.59 436.363 1657.14 427.423 1660.24 418.431C1663.44 409.44 1666.65 402.722 1669.85 398.278L1674.66 391.302L1736.51 295.96H1785.81L1738.06 368.978C1740.85 367.944 1744.06 367.428 1747.68 367.428ZM1766.9 471.296C1774.13 464.268 1777.75 455.586 1777.75 445.251C1777.75 434.916 1774.13 426.234 1766.9 419.207C1759.77 412.179 1750.67 408.665 1739.61 408.665C1728.66 408.665 1719.56 412.179 1712.33 419.207C1705.2 426.234 1701.63 434.916 1701.63 445.251C1701.63 455.586 1705.2 464.268 1712.33 471.296C1719.56 478.22 1728.66 481.682 1739.61 481.682C1750.67 481.682 1759.77 478.22 1766.9 471.296Z" fill="#1F462A"/>
<path d="M1580.35 370.683C1601.74 370.683 1619.52 377.763 1633.68 391.922C1647.94 406.081 1655.07 423.857 1655.07 445.251C1655.07 467.678 1647.27 486.282 1631.66 501.061C1616.16 515.737 1595.9 523.075 1570.89 523.075C1560.35 523.075 1550.22 521.834 1540.51 519.354C1530.9 516.977 1523.04 514.083 1516.94 510.672C1510.95 507.262 1505.68 503.903 1501.13 500.596C1496.58 497.185 1493.38 494.188 1491.52 491.604L1488.26 488.038L1516.94 457.963C1518.39 459.617 1520.41 461.684 1522.99 464.164C1525.68 466.541 1531.46 469.797 1540.35 473.931C1549.24 478.065 1558.34 480.132 1567.64 480.132C1579.52 480.132 1588.82 476.928 1595.54 470.52C1602.36 464.009 1605.77 455.586 1605.77 445.251C1605.77 434.916 1602.16 426.234 1594.92 419.207C1587.79 412.179 1578.7 408.665 1567.64 408.665C1559.99 408.665 1553.17 410.112 1547.17 413.005C1541.18 415.899 1536.99 418.793 1534.62 421.687L1531.21 426.183L1497.87 423.082L1505.78 295.96H1640.65V337.352H1548.72L1545.47 378.59C1553.94 373.319 1565.57 370.683 1580.35 370.683Z" fill="#1F462A"/>
<path d="M1394.11 446.802C1374.16 446.802 1356.44 438.999 1340.94 423.393C1325.54 407.683 1317.84 389.545 1317.84 368.978C1317.84 347.171 1325.74 328.774 1341.56 313.789C1357.47 298.803 1377.57 291.31 1401.86 291.31C1426.25 291.31 1446.41 298.803 1462.32 313.789C1478.24 328.774 1486.2 347.171 1486.2 368.978C1486.2 377.866 1484.59 386.858 1481.39 395.953C1478.19 404.944 1474.98 411.662 1471.78 416.106L1467.13 423.082L1405.12 518.269H1355.97L1403.57 445.251C1400.88 446.285 1397.73 446.802 1394.11 446.802ZM1374.58 343.089C1367.45 350.013 1363.88 358.695 1363.88 369.133C1363.88 379.468 1367.45 388.15 1374.58 395.178C1381.81 402.102 1390.91 405.564 1401.86 405.564C1412.92 405.564 1422.07 402.102 1429.3 395.178C1436.54 388.15 1440.15 379.468 1440.15 369.133C1440.15 358.695 1436.54 350.013 1429.3 343.089C1422.07 336.061 1412.92 332.547 1401.86 332.547C1390.91 332.547 1381.81 336.061 1374.58 343.089Z" fill="#1F462A"/>
<path d="M1261.67 295.96H1301.35V518.269H1253.76V356.421H1215.62V326.19C1222.44 325.364 1228.7 323.762 1234.38 321.385C1240.07 318.904 1244.46 316.269 1247.56 313.478C1250.76 310.688 1253.45 308.001 1255.62 305.417C1257.89 302.73 1259.5 300.456 1260.43 298.596L1261.67 295.96Z" fill="#1F462A"/>
<path d="M2355.49 393.128C2375.43 393.128 2393.11 400.983 2408.51 416.692C2423.9 432.298 2431.6 450.384 2431.6 470.951C2431.6 492.758 2423.65 511.207 2407.73 526.296C2391.92 541.282 2371.82 548.775 2347.42 548.775C2323.14 548.775 2303.04 541.282 2287.12 526.296C2271.31 511.207 2263.4 492.758 2263.4 470.951C2263.4 462.063 2264.95 453.123 2268.05 444.132C2271.26 435.14 2274.46 428.422 2277.66 423.978L2282.47 417.002L2344.32 321.66H2393.62L2345.87 394.678C2348.67 393.645 2351.87 393.128 2355.49 393.128ZM2374.71 496.996C2381.94 489.968 2385.56 481.286 2385.56 470.951C2385.56 460.616 2381.94 451.935 2374.71 444.907C2367.58 437.879 2358.48 434.365 2347.42 434.365C2336.47 434.365 2327.37 437.879 2320.14 444.907C2313.01 451.935 2309.44 460.616 2309.44 470.951C2309.44 481.286 2313.01 489.968 2320.14 496.996C2327.37 503.92 2336.47 507.383 2347.42 507.383C2358.48 507.383 2367.58 503.92 2374.71 496.996Z" fill="#1F462A"/>
<path d="M2188.16 396.383C2209.55 396.383 2227.33 403.463 2241.49 417.622C2255.75 431.781 2262.88 449.558 2262.88 470.951C2262.88 493.379 2255.08 511.982 2239.47 526.761C2223.97 541.437 2203.71 548.775 2178.7 548.775C2168.16 548.775 2158.03 547.535 2148.32 545.054C2138.71 542.677 2130.85 539.783 2124.75 536.373C2118.76 532.962 2113.49 529.603 2108.94 526.296C2104.39 522.885 2101.19 519.888 2099.33 517.304L2096.07 513.739L2124.75 483.664C2126.2 485.317 2128.22 487.384 2130.8 489.865C2133.49 492.242 2139.28 495.497 2148.16 499.631C2157.05 503.765 2166.15 505.832 2175.45 505.832C2187.33 505.832 2196.63 502.629 2203.35 496.221C2210.17 489.71 2213.58 481.286 2213.58 470.951C2213.58 460.616 2209.97 451.935 2202.73 444.907C2195.6 437.879 2186.51 434.365 2175.45 434.365C2167.8 434.365 2160.98 435.812 2154.98 438.706C2148.99 441.6 2144.8 444.493 2142.43 447.387L2139.02 451.883L2105.69 448.783L2113.59 321.66H2248.47V363.053H2156.53L2153.28 404.29C2161.75 399.019 2173.38 396.383 2188.16 396.383Z" fill="#1F462A"/>
<path d="M2001.92 472.502C1981.97 472.502 1964.25 464.699 1948.75 449.093C1933.35 433.383 1925.65 415.245 1925.65 394.678C1925.65 372.871 1933.55 354.475 1949.37 339.489C1965.28 324.503 1985.38 317.01 2009.67 317.01C2034.06 317.01 2054.22 324.503 2070.13 339.489C2086.05 354.475 2094.01 372.871 2094.01 394.678C2094.01 403.567 2092.4 412.558 2089.2 421.653C2086 430.645 2082.79 437.362 2079.59 441.807L2074.94 448.783L2012.93 543.969H1963.78L2011.38 470.952C2008.69 471.985 2005.54 472.502 2001.92 472.502ZM1982.39 368.789C1975.26 375.713 1971.69 384.395 1971.69 394.833C1971.69 405.169 1975.26 413.85 1982.39 420.878C1989.62 427.802 1998.72 431.265 2009.67 431.265C2020.73 431.265 2029.88 427.802 2037.11 420.878C2044.35 413.85 2047.96 405.169 2047.96 394.833C2047.96 384.395 2044.35 375.713 2037.11 368.789C2029.88 361.761 2020.73 358.247 2009.67 358.247C1998.72 358.247 1989.62 361.761 1982.39 368.789Z" fill="#1F462A"/>
<path d="M1869.48 321.66H1909.16V543.969H1861.57V382.121H1823.43V351.891C1830.26 351.064 1836.51 349.462 1842.19 347.085C1847.88 344.604 1852.27 341.969 1855.37 339.179C1858.57 336.388 1861.26 333.701 1863.43 331.117C1865.7 328.43 1867.31 326.156 1868.24 324.296L1869.48 321.66Z" fill="#1F462A"/>
<path d="M532.052 554.794C551.999 554.794 569.672 562.649 585.071 578.358C600.47 593.964 608.17 612.05 608.17 632.617C608.17 654.424 600.212 672.873 584.296 687.962C568.483 702.948 548.381 710.441 523.991 710.441C499.703 710.441 479.601 702.948 463.685 687.962C447.872 672.873 439.966 654.424 439.966 632.617C439.966 623.729 441.516 614.789 444.617 605.798C447.821 596.806 451.025 590.088 454.228 585.644L459.034 578.668L520.89 483.326H570.189L522.44 556.344C525.231 555.311 528.435 554.794 532.052 554.794ZM551.275 658.662C558.51 651.634 562.127 642.952 562.127 632.617C562.127 622.282 558.51 613.601 551.275 606.573C544.144 599.545 535.049 596.031 523.991 596.031C513.035 596.031 503.94 599.545 496.706 606.573C489.575 613.601 486.009 622.282 486.009 632.617C486.009 642.952 489.575 651.634 496.706 658.662C503.94 665.586 513.035 669.049 523.991 669.049C535.049 669.049 544.144 665.586 551.275 658.662Z" fill="#1F462A"/>
<path d="M364.726 558.049C386.12 558.049 403.896 565.129 418.055 579.288C432.318 593.447 439.449 611.224 439.449 632.617C439.449 655.045 431.646 673.648 416.04 688.427C400.537 703.103 380.28 710.441 355.269 710.441C344.727 710.441 334.599 709.201 324.884 706.72C315.272 704.343 307.418 701.449 301.32 698.039C295.325 694.628 290.055 691.269 285.507 687.962C280.96 684.551 277.756 681.554 275.895 678.97L272.64 675.405L301.32 645.33C302.767 646.983 304.782 649.05 307.366 651.531C310.053 653.908 315.841 657.163 324.729 661.297C333.617 665.431 342.712 667.498 352.014 667.498C363.899 667.498 373.201 664.294 379.918 657.887C386.74 651.376 390.15 642.952 390.15 632.617C390.15 622.282 386.533 613.601 379.298 606.573C372.167 599.545 363.072 596.031 352.014 596.031C344.366 596.031 337.544 597.478 331.55 600.372C325.556 603.266 321.37 606.159 318.993 609.053L315.582 613.549L282.252 610.448L290.158 483.326H425.031V524.719H333.1L329.845 565.956C338.32 560.685 349.947 558.049 364.726 558.049Z" fill="#1F462A"/>
<path d="M178.487 634.168C158.54 634.168 140.815 626.365 125.312 610.759C109.913 595.049 102.213 576.911 102.213 556.344C102.213 534.537 110.12 516.141 125.932 501.155C141.849 486.169 161.95 478.676 186.238 478.676C210.629 478.676 230.782 486.169 246.698 501.155C262.614 516.141 270.572 534.537 270.572 556.344C270.572 565.233 268.971 574.224 265.767 583.319C262.563 592.311 259.359 599.028 256.155 603.473L251.504 610.449L189.493 705.635H140.35L187.943 632.618C185.256 633.651 182.104 634.168 178.487 634.168ZM158.953 530.455C151.822 537.379 148.256 546.061 148.256 556.499C148.256 566.835 151.822 575.516 158.953 582.544C166.188 589.468 175.283 592.931 186.238 592.931C197.296 592.931 206.443 589.468 213.678 582.544C220.912 575.516 224.53 566.835 224.53 556.499C224.53 546.061 220.912 537.379 213.678 530.455C206.443 523.427 197.296 519.913 186.238 519.913C175.283 519.913 166.188 523.427 158.953 530.455Z" fill="#1F462A"/>
<path d="M46.0428 483.326H85.7296V705.635H38.1364V543.787H-0.000201987V513.557C6.82098 512.73 13.0737 511.128 18.758 508.751C24.4424 506.27 28.8348 503.635 31.9353 500.845C35.1392 498.054 37.8263 495.367 39.9967 492.783C42.2704 490.096 43.8724 487.822 44.8026 485.962L46.0428 483.326Z" fill="#1F462A"/>
<path d="M1139.86 580.494C1159.81 580.494 1177.48 588.349 1192.88 604.058C1208.28 619.664 1215.98 637.75 1215.98 658.317C1215.98 680.124 1208.02 698.573 1192.11 713.662C1176.29 728.648 1156.19 736.141 1131.8 736.141C1107.51 736.141 1087.41 728.648 1071.5 713.662C1055.68 698.573 1047.78 680.124 1047.78 658.317C1047.78 649.429 1049.33 640.489 1052.43 631.498C1055.63 622.506 1058.84 615.788 1062.04 611.344L1066.85 604.368L1128.7 509.027H1178L1130.25 582.044C1133.04 581.011 1136.25 580.494 1139.86 580.494ZM1159.09 684.362C1166.32 677.334 1169.94 668.652 1169.94 658.317C1169.94 647.982 1166.32 639.301 1159.09 632.273C1151.96 625.245 1142.86 621.731 1131.8 621.731C1120.85 621.731 1111.75 625.245 1104.52 632.273C1097.39 639.301 1093.82 647.982 1093.82 658.317C1093.82 668.652 1097.39 677.334 1104.52 684.362C1111.75 691.286 1120.85 694.749 1131.8 694.749C1142.86 694.749 1151.96 691.286 1159.09 684.362Z" fill="#1F462A"/>
<path d="M972.537 583.749C993.931 583.749 1011.71 590.829 1025.87 604.988C1040.13 619.147 1047.26 636.924 1047.26 658.317C1047.26 680.745 1039.46 699.348 1023.85 714.127C1008.35 728.803 988.092 736.141 963.081 736.141C952.539 736.141 942.411 734.901 932.696 732.42C923.084 730.043 915.229 727.149 909.132 723.739C903.137 720.328 897.866 716.969 893.319 713.662C888.771 710.251 885.567 707.254 883.707 704.67L880.452 701.105L909.132 671.03C910.578 672.683 912.594 674.75 915.178 677.231C917.865 679.608 923.652 682.863 932.541 686.997C941.429 691.131 950.524 693.198 959.825 693.198C971.711 693.198 981.012 689.995 987.73 683.587C994.551 677.076 997.962 668.652 997.962 658.317C997.962 647.982 994.345 639.301 987.11 632.273C979.979 625.245 970.884 621.731 959.825 621.731C952.177 621.731 945.356 623.178 939.362 626.072C933.367 628.966 929.182 631.859 926.805 634.753L923.394 639.249L890.063 636.149L897.97 509.027H1032.84V550.419H940.912L937.656 591.656C946.131 586.385 957.758 583.749 972.537 583.749Z" fill="#1F462A"/>
<path d="M786.298 659.868C766.351 659.868 748.627 652.065 733.124 636.459C717.725 620.749 710.025 602.611 710.025 582.044C710.025 560.237 717.931 541.841 733.744 526.855C749.66 511.869 769.762 504.376 794.05 504.376C818.44 504.376 838.594 511.869 854.51 526.855C870.426 541.841 878.384 560.237 878.384 582.044C878.384 590.933 876.782 599.924 873.578 609.019C870.374 618.011 867.171 624.728 863.967 629.173L859.316 636.149L797.305 731.335H748.162L795.755 658.318C793.068 659.351 789.916 659.868 786.298 659.868ZM766.765 556.155C759.634 563.079 756.068 571.761 756.068 582.199C756.068 592.535 759.634 601.216 766.765 608.244C773.999 615.168 783.094 618.631 794.05 618.631C805.108 618.631 814.255 615.168 821.489 608.244C828.724 601.216 832.341 592.535 832.341 582.199C832.341 571.761 828.724 563.079 821.489 556.155C814.255 549.127 805.108 545.613 794.05 545.613C783.094 545.613 773.999 549.127 766.765 556.155Z" fill="#1F462A"/>
<path d="M653.854 509.027H693.541V731.335H645.948V569.487H607.812V539.257C614.633 538.43 620.885 536.828 626.57 534.451C632.254 531.97 636.647 529.335 639.747 526.545C642.951 523.754 645.638 521.067 647.808 518.483C650.082 515.796 651.684 513.522 652.614 511.662L653.854 509.027Z" fill="#1F462A"/>
<path d="M1747.68 606.195C1767.62 606.195 1785.3 614.049 1800.69 629.759C1816.09 645.365 1823.79 663.451 1823.79 684.018C1823.79 705.825 1815.84 724.273 1799.92 739.363C1784.11 754.349 1764 761.842 1739.61 761.842C1715.33 761.842 1695.22 754.349 1679.31 739.363C1663.5 724.273 1655.59 705.825 1655.59 684.018C1655.59 675.13 1657.14 666.19 1660.24 657.198C1663.44 648.207 1666.65 641.489 1669.85 637.045L1674.66 630.069L1736.51 534.727H1785.81L1738.06 607.745C1740.85 606.711 1744.06 606.195 1747.68 606.195ZM1766.9 710.063C1774.13 703.035 1777.75 694.353 1777.75 684.018C1777.75 673.683 1774.13 665.001 1766.9 657.974C1759.77 650.946 1750.67 647.432 1739.61 647.432C1728.66 647.432 1719.56 650.946 1712.33 657.974C1705.2 665.001 1701.63 673.683 1701.63 684.018C1701.63 694.353 1705.2 703.035 1712.33 710.063C1719.56 716.987 1728.66 720.449 1739.61 720.449C1750.67 720.449 1759.77 716.987 1766.9 710.063Z" fill="#1F462A"/>
<path d="M1580.35 609.45C1601.74 609.45 1619.52 616.53 1633.68 630.689C1647.94 644.848 1655.07 662.624 1655.07 684.018C1655.07 706.445 1647.27 725.048 1631.66 739.828C1616.16 754.504 1595.9 761.842 1570.89 761.842C1560.35 761.842 1550.22 760.601 1540.51 758.121C1530.9 755.744 1523.04 752.85 1516.94 749.439C1510.95 746.029 1505.68 742.67 1501.13 739.363C1496.58 735.952 1493.38 732.955 1491.52 730.371L1488.26 726.805L1516.94 696.73C1518.39 698.384 1520.41 700.451 1522.99 702.931C1525.68 705.308 1531.46 708.564 1540.35 712.698C1549.24 716.832 1558.34 718.899 1567.64 718.899C1579.52 718.899 1588.82 715.695 1595.54 709.287C1602.36 702.776 1605.77 694.353 1605.77 684.018C1605.77 673.683 1602.16 665.001 1594.92 657.974C1587.79 650.946 1578.7 647.432 1567.64 647.432C1559.99 647.432 1553.17 648.879 1547.17 651.772C1541.18 654.666 1536.99 657.56 1534.62 660.454L1531.21 664.95L1497.87 661.849L1505.78 534.727H1640.65V576.119H1548.72L1545.47 617.356C1553.94 612.086 1565.57 609.45 1580.35 609.45Z" fill="#1F462A"/>
<path d="M1394.11 685.569C1374.16 685.569 1356.44 677.766 1340.94 662.159C1325.54 646.45 1317.84 628.312 1317.84 607.745C1317.84 585.938 1325.74 567.541 1341.56 552.555C1357.47 537.57 1377.57 530.077 1401.86 530.077C1426.25 530.077 1446.41 537.57 1462.32 552.555C1478.24 567.541 1486.2 585.938 1486.2 607.745C1486.2 616.633 1484.59 625.625 1481.39 634.72C1478.19 643.711 1474.98 650.429 1471.78 654.873L1467.13 661.849L1405.12 757.036H1355.97L1403.57 684.018C1400.88 685.052 1397.73 685.569 1394.11 685.569ZM1374.58 581.856C1367.45 588.78 1363.88 597.462 1363.88 607.9C1363.88 618.235 1367.45 626.917 1374.58 633.945C1381.81 640.869 1390.91 644.331 1401.86 644.331C1412.92 644.331 1422.07 640.869 1429.3 633.945C1436.54 626.917 1440.15 618.235 1440.15 607.9C1440.15 597.462 1436.54 588.78 1429.3 581.856C1422.07 574.828 1412.92 571.314 1401.86 571.314C1390.91 571.314 1381.81 574.828 1374.58 581.856Z" fill="#1F462A"/>
<path d="M1261.67 534.727H1301.35V757.036H1253.76V595.188H1215.62V564.957C1222.44 564.131 1228.7 562.529 1234.38 560.152C1240.07 557.671 1244.46 555.036 1247.56 552.245C1250.76 549.455 1253.45 546.768 1255.62 544.184C1257.89 541.497 1259.5 539.223 1260.43 537.363L1261.67 534.727Z" fill="#1F462A"/>
<path d="M2355.49 631.895C2375.43 631.895 2393.11 639.749 2408.51 655.459C2423.9 671.065 2431.6 689.151 2431.6 709.718C2431.6 731.525 2423.65 749.973 2407.73 765.063C2391.92 780.049 2371.82 787.542 2347.42 787.542C2323.14 787.542 2303.04 780.049 2287.12 765.063C2271.31 749.973 2263.4 731.525 2263.4 709.718C2263.4 700.83 2264.95 691.89 2268.05 682.899C2271.26 673.907 2274.46 667.189 2277.66 662.745L2282.47 655.769L2344.32 560.427H2393.62L2345.87 633.445C2348.67 632.411 2351.87 631.895 2355.49 631.895ZM2374.71 735.763C2381.94 728.735 2385.56 720.053 2385.56 709.718C2385.56 699.383 2381.94 690.702 2374.71 683.674C2367.58 676.646 2358.48 673.132 2347.42 673.132C2336.47 673.132 2327.37 676.646 2320.14 683.674C2313.01 690.702 2309.44 699.383 2309.44 709.718C2309.44 720.053 2313.01 728.735 2320.14 735.763C2327.37 742.687 2336.47 746.149 2347.42 746.149C2358.48 746.149 2367.58 742.687 2374.71 735.763Z" fill="#1F462A"/>
<path d="M2188.16 635.15C2209.55 635.15 2227.33 642.23 2241.49 656.389C2255.75 670.548 2262.88 688.324 2262.88 709.718C2262.88 732.145 2255.08 750.749 2239.47 765.528C2223.97 780.204 2203.71 787.542 2178.7 787.542C2168.16 787.542 2158.03 786.301 2148.32 783.821C2138.71 781.444 2130.85 778.55 2124.75 775.139C2118.76 771.729 2113.49 768.37 2108.94 765.063C2104.39 761.652 2101.19 758.655 2099.33 756.071L2096.07 752.506L2124.75 722.43C2126.2 724.084 2128.22 726.151 2130.8 728.631C2133.49 731.009 2139.28 734.264 2148.16 738.398C2157.05 742.532 2166.15 744.599 2175.45 744.599C2187.33 744.599 2196.63 741.395 2203.35 734.988C2210.17 728.476 2213.58 720.053 2213.58 709.718C2213.58 699.383 2209.97 690.702 2202.73 683.674C2195.6 676.646 2186.51 673.132 2175.45 673.132C2167.8 673.132 2160.98 674.579 2154.98 677.473C2148.99 680.366 2144.8 683.26 2142.43 686.154L2139.02 690.65L2105.69 687.549L2113.59 560.427H2248.47V601.819H2156.53L2153.28 643.057C2161.75 637.786 2173.38 635.15 2188.16 635.15Z" fill="#1F462A"/>
<path d="M2001.92 711.269C1981.97 711.269 1964.25 703.466 1948.75 687.86C1933.35 672.15 1925.65 654.012 1925.65 633.445C1925.65 611.638 1933.55 593.242 1949.37 578.256C1965.28 563.27 1985.38 555.777 2009.67 555.777C2034.06 555.777 2054.22 563.27 2070.13 578.256C2086.05 593.242 2094.01 611.638 2094.01 633.445C2094.01 642.333 2092.4 651.325 2089.2 660.42C2086 669.411 2082.79 676.129 2079.59 680.573L2074.94 687.55L2012.93 782.736H1963.78L2011.38 709.718C2008.69 710.752 2005.54 711.269 2001.92 711.269ZM1982.39 607.556C1975.26 614.48 1971.69 623.162 1971.69 633.6C1971.69 643.935 1975.26 652.617 1982.39 659.645C1989.62 666.569 1998.72 670.032 2009.67 670.032C2020.73 670.032 2029.88 666.569 2037.11 659.645C2044.35 652.617 2047.96 643.935 2047.96 633.6C2047.96 623.162 2044.35 614.48 2037.11 607.556C2029.88 600.528 2020.73 597.014 2009.67 597.014C1998.72 597.014 1989.62 600.528 1982.39 607.556Z" fill="#1F462A"/>
<path d="M1869.48 560.427H1909.16V782.736H1861.57V620.888H1823.43V590.658C1830.26 589.831 1836.51 588.229 1842.19 585.852C1847.88 583.371 1852.27 580.736 1855.37 577.945C1858.57 575.155 1861.26 572.468 1863.43 569.884C1865.7 567.197 1867.31 564.923 1868.24 563.063L1869.48 560.427Z" fill="#1F462A"/>
<path d="M532.052 794.703C551.999 794.703 569.672 802.558 585.071 818.267C600.47 833.873 608.17 851.96 608.17 872.526C608.17 894.334 600.212 912.782 584.296 927.871C568.483 942.857 548.381 950.35 523.991 950.35C499.703 950.35 479.601 942.857 463.685 927.871C447.872 912.782 439.966 894.334 439.966 872.526C439.966 863.638 441.516 854.698 444.617 845.707C447.821 836.715 451.025 829.997 454.228 825.553L459.034 818.577L520.89 723.236H570.189L522.44 796.253C525.231 795.22 528.435 794.703 532.052 794.703ZM551.275 898.571C558.51 891.543 562.127 882.862 562.127 872.526C562.127 862.191 558.51 853.51 551.275 846.482C544.144 839.454 535.049 835.94 523.991 835.94C513.035 835.94 503.94 839.454 496.706 846.482C489.575 853.51 486.009 862.191 486.009 872.526C486.009 882.862 489.575 891.543 496.706 898.571C503.94 905.495 513.035 908.958 523.991 908.958C535.049 908.958 544.144 905.495 551.275 898.571Z" fill="#1F462A"/>
<path d="M364.726 797.958C386.12 797.958 403.896 805.038 418.055 819.197C432.318 833.356 439.449 851.133 439.449 872.526C439.449 894.954 431.646 913.557 416.04 928.336C400.537 943.012 380.28 950.35 355.269 950.35C344.727 950.35 334.599 949.11 324.884 946.629C315.272 944.252 307.418 941.358 301.32 937.948C295.325 934.537 290.055 931.178 285.507 927.871C280.96 924.46 277.756 921.463 275.895 918.879L272.64 915.314L301.32 885.239C302.767 886.892 304.782 888.959 307.366 891.44C310.053 893.817 315.841 897.072 324.729 901.206C333.617 905.34 342.712 907.407 352.014 907.407C363.899 907.407 373.201 904.204 379.918 897.796C386.74 891.285 390.15 882.862 390.15 872.526C390.15 862.191 386.533 853.51 379.298 846.482C372.167 839.454 363.072 835.94 352.014 835.94C344.366 835.94 337.544 837.387 331.55 840.281C325.556 843.175 321.37 846.068 318.993 848.962L315.582 853.458L282.252 850.358L290.158 723.236H425.031V764.628H333.1L329.845 805.865C338.32 800.594 349.947 797.958 364.726 797.958Z" fill="#1F462A"/>
<path d="M178.487 874.077C158.54 874.077 140.815 866.274 125.312 850.668C109.913 834.958 102.213 816.82 102.213 796.253C102.213 774.446 110.12 756.05 125.932 741.064C141.849 726.078 161.95 718.585 186.238 718.585C210.629 718.585 230.782 726.078 246.698 741.064C262.614 756.05 270.572 774.446 270.572 796.253C270.572 805.142 268.971 814.133 265.767 823.228C262.563 832.22 259.359 838.937 256.155 843.382L251.504 850.358L189.493 945.544H140.35L187.943 872.527C185.256 873.56 182.104 874.077 178.487 874.077ZM158.953 770.364C151.822 777.288 148.256 785.97 148.256 796.408C148.256 806.744 151.822 815.425 158.953 822.453C166.188 829.377 175.283 832.84 186.238 832.84C197.296 832.84 206.443 829.377 213.678 822.453C220.912 815.425 224.53 806.744 224.53 796.408C224.53 785.97 220.912 777.288 213.678 770.364C206.443 763.336 197.296 759.822 186.238 759.822C175.283 759.822 166.188 763.336 158.953 770.364Z" fill="#1F462A"/>
<path d="M46.0428 723.236H85.7296V945.544H38.1364V783.696H-0.000201987V753.466C6.82098 752.639 13.0737 751.037 18.758 748.66C24.4424 746.18 28.8348 743.544 31.9353 740.754C35.1392 737.963 37.8263 735.276 39.9967 732.692C42.2704 730.005 43.8724 727.731 44.8026 725.871L46.0428 723.236Z" fill="#1F462A"/>
<path d="M1139.86 820.403C1159.81 820.403 1177.48 828.258 1192.88 843.967C1208.28 859.573 1215.98 877.66 1215.98 898.226C1215.98 920.034 1208.02 938.482 1192.11 953.571C1176.29 968.557 1156.19 976.05 1131.8 976.05C1107.51 976.05 1087.41 968.557 1071.5 953.571C1055.68 938.482 1047.78 920.034 1047.78 898.226C1047.78 889.338 1049.33 880.398 1052.43 871.407C1055.63 862.415 1058.84 855.697 1062.04 851.253L1066.85 844.277L1128.7 748.936H1178L1130.25 821.953C1133.04 820.92 1136.25 820.403 1139.86 820.403ZM1159.09 924.271C1166.32 917.243 1169.94 908.562 1169.94 898.226C1169.94 887.891 1166.32 879.21 1159.09 872.182C1151.96 865.154 1142.86 861.64 1131.8 861.64C1120.85 861.64 1111.75 865.154 1104.52 872.182C1097.39 879.21 1093.82 887.891 1093.82 898.226C1093.82 908.562 1097.39 917.243 1104.52 924.271C1111.75 931.195 1120.85 934.658 1131.8 934.658C1142.86 934.658 1151.96 931.195 1159.09 924.271Z" fill="#1F462A"/>
<path d="M972.537 823.658C993.931 823.658 1011.71 830.738 1025.87 844.897C1040.13 859.056 1047.26 876.833 1047.26 898.226C1047.26 920.654 1039.46 939.257 1023.85 954.036C1008.35 968.712 988.092 976.05 963.081 976.05C952.539 976.05 942.411 974.81 932.696 972.329C923.084 969.952 915.229 967.058 909.132 963.648C903.137 960.237 897.866 956.878 893.319 953.571C888.771 950.16 885.567 947.163 883.707 944.579L880.452 941.014L909.132 910.939C910.578 912.592 912.594 914.659 915.178 917.14C917.865 919.517 923.652 922.772 932.541 926.906C941.429 931.04 950.524 933.107 959.825 933.107C971.711 933.107 981.012 929.904 987.73 923.496C994.551 916.985 997.962 908.562 997.962 898.226C997.962 887.891 994.345 879.21 987.11 872.182C979.979 865.154 970.884 861.64 959.825 861.64C952.177 861.64 945.356 863.087 939.362 865.981C933.367 868.875 929.182 871.768 926.805 874.662L923.394 879.158L890.063 876.058L897.97 748.936H1032.84V790.328H940.912L937.656 831.565C946.131 826.294 957.758 823.658 972.537 823.658Z" fill="#1F462A"/>
<path d="M786.298 899.777C766.351 899.777 748.627 891.974 733.124 876.368C717.725 860.658 710.025 842.52 710.025 821.953C710.025 800.146 717.931 781.75 733.744 766.764C749.66 751.778 769.762 744.285 794.05 744.285C818.44 744.285 838.594 751.778 854.51 766.764C870.426 781.75 878.384 800.146 878.384 821.953C878.384 830.842 876.782 839.833 873.578 848.928C870.374 857.92 867.171 864.637 863.967 869.082L859.316 876.058L797.305 971.244H748.162L795.755 898.227C793.068 899.26 789.916 899.777 786.298 899.777ZM766.765 796.064C759.634 802.988 756.068 811.67 756.068 822.108C756.068 832.444 759.634 841.125 766.765 848.153C773.999 855.077 783.094 858.54 794.05 858.54C805.108 858.54 814.255 855.077 821.489 848.153C828.724 841.125 832.341 832.444 832.341 822.108C832.341 811.67 828.724 802.988 821.489 796.064C814.255 789.036 805.108 785.522 794.05 785.522C783.094 785.522 773.999 789.036 766.765 796.064Z" fill="#1F462A"/>
<path d="M653.854 748.936H693.541V971.244H645.948V809.396H607.812V779.166C614.633 778.339 620.885 776.737 626.57 774.36C632.254 771.88 636.647 769.244 639.747 766.454C642.951 763.663 645.638 760.976 647.808 758.392C650.082 755.705 651.684 753.431 652.614 751.571L653.854 748.936Z" fill="#1F462A"/>
<path d="M1747.68 846.104C1767.62 846.104 1785.3 853.958 1800.69 869.668C1816.09 885.274 1823.79 903.36 1823.79 923.927C1823.79 945.734 1815.84 964.182 1799.92 979.272C1784.11 994.258 1764 1001.75 1739.61 1001.75C1715.33 1001.75 1695.22 994.258 1679.31 979.272C1663.5 964.182 1655.59 945.734 1655.59 923.927C1655.59 915.039 1657.14 906.099 1660.24 897.107C1663.44 888.116 1666.65 881.398 1669.85 876.954L1674.66 869.978L1736.51 774.636H1785.81L1738.06 847.654C1740.85 846.62 1744.06 846.104 1747.68 846.104ZM1766.9 949.972C1774.13 942.944 1777.75 934.262 1777.75 923.927C1777.75 913.592 1774.13 904.91 1766.9 897.883C1759.77 890.855 1750.67 887.341 1739.61 887.341C1728.66 887.341 1719.56 890.855 1712.33 897.883C1705.2 904.91 1701.63 913.592 1701.63 923.927C1701.63 934.262 1705.2 942.944 1712.33 949.972C1719.56 956.896 1728.66 960.358 1739.61 960.358C1750.67 960.358 1759.77 956.896 1766.9 949.972Z" fill="#1F462A"/>
<path d="M1580.35 849.359C1601.74 849.359 1619.52 856.439 1633.68 870.598C1647.94 884.757 1655.07 902.533 1655.07 923.927C1655.07 946.354 1647.27 964.957 1631.66 979.737C1616.16 994.413 1595.9 1001.75 1570.89 1001.75C1560.35 1001.75 1550.22 1000.51 1540.51 998.03C1530.9 995.653 1523.04 992.759 1516.94 989.348C1510.95 985.938 1505.68 982.579 1501.13 979.272C1496.58 975.861 1493.38 972.864 1491.52 970.28L1488.26 966.714L1516.94 936.639C1518.39 938.293 1520.41 940.36 1522.99 942.84C1525.68 945.217 1531.46 948.473 1540.35 952.607C1549.24 956.741 1558.34 958.808 1567.64 958.808C1579.52 958.808 1588.82 955.604 1595.54 949.196C1602.36 942.685 1605.77 934.262 1605.77 923.927C1605.77 913.592 1602.16 904.91 1594.92 897.883C1587.79 890.855 1578.7 887.341 1567.64 887.341C1559.99 887.341 1553.17 888.788 1547.17 891.681C1541.18 894.575 1536.99 897.469 1534.62 900.363L1531.21 904.859L1497.87 901.758L1505.78 774.636H1640.65V816.028H1548.72L1545.47 857.265C1553.94 851.995 1565.57 849.359 1580.35 849.359Z" fill="#1F462A"/>
<path d="M1394.11 925.478C1374.16 925.478 1356.44 917.675 1340.94 902.068C1325.54 886.359 1317.84 868.221 1317.84 847.654C1317.84 825.847 1325.74 807.45 1341.56 792.464C1357.47 777.479 1377.57 769.986 1401.86 769.986C1426.25 769.986 1446.41 777.479 1462.32 792.464C1478.24 807.45 1486.2 825.847 1486.2 847.654C1486.2 856.542 1484.59 865.534 1481.39 874.629C1478.19 883.62 1474.98 890.338 1471.78 894.782L1467.13 901.758L1405.12 996.945H1355.97L1403.57 923.927C1400.88 924.961 1397.73 925.478 1394.11 925.478ZM1374.58 821.765C1367.45 828.689 1363.88 837.371 1363.88 847.809C1363.88 858.144 1367.45 866.826 1374.58 873.854C1381.81 880.778 1390.91 884.24 1401.86 884.24C1412.92 884.24 1422.07 880.778 1429.3 873.854C1436.54 866.826 1440.15 858.144 1440.15 847.809C1440.15 837.371 1436.54 828.689 1429.3 821.765C1422.07 814.737 1412.92 811.223 1401.86 811.223C1390.91 811.223 1381.81 814.737 1374.58 821.765Z" fill="#1F462A"/>
<path d="M1261.67 774.636H1301.35V996.945H1253.76V835.097H1215.62V804.866C1222.44 804.04 1228.7 802.438 1234.38 800.061C1240.07 797.58 1244.46 794.945 1247.56 792.154C1250.76 789.364 1253.45 786.677 1255.62 784.093C1257.89 781.406 1259.5 779.132 1260.43 777.272L1261.67 774.636Z" fill="#1F462A"/>
<path d="M2355.49 871.804C2375.43 871.804 2393.11 879.658 2408.51 895.368C2423.9 910.974 2431.6 929.06 2431.6 949.627C2431.6 971.434 2423.65 989.883 2407.73 1004.97C2391.92 1019.96 2371.82 1027.45 2347.42 1027.45C2323.14 1027.45 2303.04 1019.96 2287.12 1004.97C2271.31 989.883 2263.4 971.434 2263.4 949.627C2263.4 940.739 2264.95 931.799 2268.05 922.808C2271.26 913.816 2274.46 907.098 2277.66 902.654L2282.47 895.678L2344.32 800.336H2393.62L2345.87 873.354C2348.67 872.321 2351.87 871.804 2355.49 871.804ZM2374.71 975.672C2381.94 968.644 2385.56 959.962 2385.56 949.627C2385.56 939.292 2381.94 930.611 2374.71 923.583C2367.58 916.555 2358.48 913.041 2347.42 913.041C2336.47 913.041 2327.37 916.555 2320.14 923.583C2313.01 930.611 2309.44 939.292 2309.44 949.627C2309.44 959.962 2313.01 968.644 2320.14 975.672C2327.37 982.596 2336.47 986.059 2347.42 986.059C2358.48 986.059 2367.58 982.596 2374.71 975.672Z" fill="#1F462A"/>
<path d="M2188.16 875.059C2209.55 875.059 2227.33 882.139 2241.49 896.298C2255.75 910.457 2262.88 928.234 2262.88 949.627C2262.88 972.054 2255.08 990.658 2239.47 1005.44C2223.97 1020.11 2203.71 1027.45 2178.7 1027.45C2168.16 1027.45 2158.03 1026.21 2148.32 1023.73C2138.71 1021.35 2130.85 1018.46 2124.75 1015.05C2118.76 1011.64 2113.49 1008.28 2108.94 1004.97C2104.39 1001.56 2101.19 998.564 2099.33 995.98L2096.07 992.415L2124.75 962.339C2126.2 963.993 2128.22 966.06 2130.8 968.54C2133.49 970.918 2139.28 974.173 2148.16 978.307C2157.05 982.441 2166.15 984.508 2175.45 984.508C2187.33 984.508 2196.63 981.304 2203.35 974.897C2210.17 968.385 2213.58 959.962 2213.58 949.627C2213.58 939.292 2209.97 930.611 2202.73 923.583C2195.6 916.555 2186.51 913.041 2175.45 913.041C2167.8 913.041 2160.98 914.488 2154.98 917.382C2148.99 920.275 2144.8 923.169 2142.43 926.063L2139.02 930.559L2105.69 927.458L2113.59 800.336H2248.47V841.729H2156.53L2153.28 882.966C2161.75 877.695 2173.38 875.059 2188.16 875.059Z" fill="#1F462A"/>
<path d="M2001.92 951.178C1981.97 951.178 1964.25 943.375 1948.75 927.769C1933.35 912.059 1925.65 893.921 1925.65 873.354C1925.65 851.547 1933.55 833.151 1949.37 818.165C1965.28 803.179 1985.38 795.686 2009.67 795.686C2034.06 795.686 2054.22 803.179 2070.13 818.165C2086.05 833.151 2094.01 851.547 2094.01 873.354C2094.01 882.242 2092.4 891.234 2089.2 900.329C2086 909.32 2082.79 916.038 2079.59 920.482L2074.94 927.459L2012.93 1022.65H1963.78L2011.38 949.627C2008.69 950.661 2005.54 951.178 2001.92 951.178ZM1982.39 847.465C1975.26 854.389 1971.69 863.071 1971.69 873.509C1971.69 883.844 1975.26 892.526 1982.39 899.554C1989.62 906.478 1998.72 909.941 2009.67 909.941C2020.73 909.941 2029.88 906.478 2037.11 899.554C2044.35 892.526 2047.96 883.844 2047.96 873.509C2047.96 863.071 2044.35 854.389 2037.11 847.465C2029.88 840.437 2020.73 836.923 2009.67 836.923C1998.72 836.923 1989.62 840.437 1982.39 847.465Z" fill="#1F462A"/>
<path d="M1869.48 800.336H1909.16V1022.64H1861.57V860.797H1823.43V830.567C1830.26 829.74 1836.51 828.138 1842.19 825.761C1847.88 823.28 1852.27 820.645 1855.37 817.854C1858.57 815.064 1861.26 812.377 1863.43 809.793C1865.7 807.106 1867.31 804.832 1868.24 802.972L1869.48 800.336Z" fill="#1F462A"/>
<path d="M532.052 1034.61C551.999 1034.61 569.672 1042.47 585.071 1058.18C600.47 1073.78 608.17 1091.87 608.17 1112.44C608.17 1134.24 600.212 1152.69 584.296 1167.78C568.483 1182.77 548.381 1190.26 523.991 1190.26C499.703 1190.26 479.601 1182.77 463.685 1167.78C447.872 1152.69 439.966 1134.24 439.966 1112.44C439.966 1103.55 441.516 1094.61 444.617 1085.62C447.821 1076.62 451.025 1069.91 454.228 1065.46L459.034 1058.49L520.89 963.145H570.189L522.44 1036.16C525.231 1035.13 528.435 1034.61 532.052 1034.61ZM551.275 1138.48C558.51 1131.45 562.127 1122.77 562.127 1112.44C562.127 1102.1 558.51 1093.42 551.275 1086.39C544.144 1079.36 535.049 1075.85 523.991 1075.85C513.035 1075.85 503.94 1079.36 496.706 1086.39C489.575 1093.42 486.009 1102.1 486.009 1112.44C486.009 1122.77 489.575 1131.45 496.706 1138.48C503.94 1145.4 513.035 1148.87 523.991 1148.87C535.049 1148.87 544.144 1145.4 551.275 1138.48Z" fill="#1F462A"/>
<path d="M364.726 1037.87C386.12 1037.87 403.896 1044.95 418.055 1059.11C432.318 1073.27 439.449 1091.04 439.449 1112.44C439.449 1134.86 431.646 1153.47 416.04 1168.25C400.537 1182.92 380.28 1190.26 355.269 1190.26C344.727 1190.26 334.599 1189.02 324.884 1186.54C315.272 1184.16 307.418 1181.27 301.32 1177.86C295.325 1174.45 290.055 1171.09 285.507 1167.78C280.96 1164.37 277.756 1161.37 275.895 1158.79L272.64 1155.22L301.32 1125.15C302.767 1126.8 304.782 1128.87 307.366 1131.35C310.053 1133.73 315.841 1136.98 324.729 1141.12C333.617 1145.25 342.712 1147.32 352.014 1147.32C363.899 1147.32 373.201 1144.11 379.918 1137.7C386.74 1131.19 390.15 1122.77 390.15 1112.44C390.15 1102.1 386.533 1093.42 379.298 1086.39C372.167 1079.36 363.072 1075.85 352.014 1075.85C344.366 1075.85 337.544 1077.3 331.55 1080.19C325.556 1083.08 321.37 1085.98 318.993 1088.87L315.582 1093.37L282.252 1090.27L290.158 963.145H425.031V1004.54H333.1L329.845 1045.77C338.32 1040.5 349.947 1037.87 364.726 1037.87Z" fill="#1F462A"/>
<path d="M178.487 1113.99C158.54 1113.99 140.815 1106.18 125.312 1090.58C109.913 1074.87 102.213 1056.73 102.213 1036.16C102.213 1014.36 110.12 995.959 125.932 980.973C141.849 965.987 161.95 958.494 186.238 958.494C210.629 958.494 230.782 965.987 246.698 980.973C262.614 995.959 270.572 1014.36 270.572 1036.16C270.572 1045.05 268.971 1054.04 265.767 1063.14C262.563 1072.13 259.359 1078.85 256.155 1083.29L251.504 1090.27L189.493 1185.45H140.35L187.943 1112.44C185.256 1113.47 182.104 1113.99 178.487 1113.99ZM158.953 1010.27C151.822 1017.2 148.256 1025.88 148.256 1036.32C148.256 1046.65 151.822 1055.33 158.953 1062.36C166.188 1069.29 175.283 1072.75 186.238 1072.75C197.296 1072.75 206.443 1069.29 213.678 1062.36C220.912 1055.33 224.53 1046.65 224.53 1036.32C224.53 1025.88 220.912 1017.2 213.678 1010.27C206.443 1003.25 197.296 999.731 186.238 999.731C175.283 999.731 166.188 1003.25 158.953 1010.27Z" fill="#1F462A"/>
<path d="M46.0428 963.145H85.7296V1185.45H38.1364V1023.61H-0.000201987V993.375C6.82098 992.548 13.0737 990.946 18.758 988.569C24.4424 986.089 28.8348 983.453 31.9353 980.663C35.1392 977.872 37.8263 975.185 39.9967 972.601C42.2704 969.914 43.8724 967.64 44.8026 965.78L46.0428 963.145Z" fill="#1F462A"/>
<path d="M1139.86 1060.31C1159.81 1060.31 1177.48 1068.17 1192.88 1083.88C1208.28 1099.48 1215.98 1117.57 1215.98 1138.14C1215.98 1159.94 1208.02 1178.39 1192.11 1193.48C1176.29 1208.47 1156.19 1215.96 1131.8 1215.96C1107.51 1215.96 1087.41 1208.47 1071.5 1193.48C1055.68 1178.39 1047.78 1159.94 1047.78 1138.14C1047.78 1129.25 1049.33 1120.31 1052.43 1111.32C1055.63 1102.32 1058.84 1095.61 1062.04 1091.16L1066.85 1084.19L1128.7 988.845H1178L1130.25 1061.86C1133.04 1060.83 1136.25 1060.31 1139.86 1060.31ZM1159.09 1164.18C1166.32 1157.15 1169.94 1148.47 1169.94 1138.14C1169.94 1127.8 1166.32 1119.12 1159.09 1112.09C1151.96 1105.06 1142.86 1101.55 1131.8 1101.55C1120.85 1101.55 1111.75 1105.06 1104.52 1112.09C1097.39 1119.12 1093.82 1127.8 1093.82 1138.14C1093.82 1148.47 1097.39 1157.15 1104.52 1164.18C1111.75 1171.1 1120.85 1174.57 1131.8 1174.57C1142.86 1174.57 1151.96 1171.1 1159.09 1164.18Z" fill="#1F462A"/>
<path d="M972.537 1063.57C993.931 1063.57 1011.71 1070.65 1025.87 1084.81C1040.13 1098.97 1047.26 1116.74 1047.26 1138.14C1047.26 1160.56 1039.46 1179.17 1023.85 1193.95C1008.35 1208.62 988.092 1215.96 963.081 1215.96C952.539 1215.96 942.411 1214.72 932.696 1212.24C923.084 1209.86 915.229 1206.97 909.132 1203.56C903.137 1200.15 897.866 1196.79 893.319 1193.48C888.771 1190.07 885.567 1187.07 883.707 1184.49L880.452 1180.92L909.132 1150.85C910.578 1152.5 912.594 1154.57 915.178 1157.05C917.865 1159.43 923.652 1162.68 932.541 1166.82C941.429 1170.95 950.524 1173.02 959.825 1173.02C971.711 1173.02 981.012 1169.81 987.73 1163.4C994.551 1156.89 997.962 1148.47 997.962 1138.14C997.962 1127.8 994.345 1119.12 987.11 1112.09C979.979 1105.06 970.884 1101.55 959.825 1101.55C952.177 1101.55 945.356 1103 939.362 1105.89C933.367 1108.78 929.182 1111.68 926.805 1114.57L923.394 1119.07L890.063 1115.97L897.97 988.845H1032.84V1030.24H940.912L937.656 1071.47C946.131 1066.2 957.758 1063.57 972.537 1063.57Z" fill="#1F462A"/>
<path d="M786.298 1139.69C766.351 1139.69 748.627 1131.88 733.124 1116.28C717.725 1100.57 710.025 1082.43 710.025 1061.86C710.025 1040.06 717.931 1021.66 733.744 1006.67C749.66 991.687 769.762 984.194 794.05 984.194C818.44 984.194 838.594 991.687 854.51 1006.67C870.426 1021.66 878.384 1040.06 878.384 1061.86C878.384 1070.75 876.782 1079.74 873.578 1088.84C870.374 1097.83 867.171 1104.55 863.967 1108.99L859.316 1115.97L797.305 1211.15H748.162L795.755 1138.14C793.068 1139.17 789.916 1139.69 786.298 1139.69ZM766.765 1035.97C759.634 1042.9 756.068 1051.58 756.068 1062.02C756.068 1072.35 759.634 1081.03 766.765 1088.06C773.999 1094.99 783.094 1098.45 794.05 1098.45C805.108 1098.45 814.255 1094.99 821.489 1088.06C828.724 1081.03 832.341 1072.35 832.341 1062.02C832.341 1051.58 828.724 1042.9 821.489 1035.97C814.255 1028.95 805.108 1025.43 794.05 1025.43C783.094 1025.43 773.999 1028.95 766.765 1035.97Z" fill="#1F462A"/>
<path d="M653.854 988.845H693.541V1211.15H645.948V1049.31H607.812V1019.07C614.633 1018.25 620.885 1016.65 626.57 1014.27C632.254 1011.79 636.647 1009.15 639.747 1006.36C642.951 1003.57 645.638 1000.89 647.808 998.301C650.082 995.614 651.684 993.34 652.614 991.48L653.854 988.845Z" fill="#1F462A"/>
<path d="M1747.68 1086.01C1767.62 1086.01 1785.3 1093.87 1800.69 1109.58C1816.09 1125.18 1823.79 1143.27 1823.79 1163.84C1823.79 1185.64 1815.84 1204.09 1799.92 1219.18C1784.11 1234.17 1764 1241.66 1739.61 1241.66C1715.33 1241.66 1695.22 1234.17 1679.31 1219.18C1663.5 1204.09 1655.59 1185.64 1655.59 1163.84C1655.59 1154.95 1657.14 1146.01 1660.24 1137.02C1663.44 1128.02 1666.65 1121.31 1669.85 1116.86L1674.66 1109.89L1736.51 1014.55H1785.81L1738.06 1087.56C1740.85 1086.53 1744.06 1086.01 1747.68 1086.01ZM1766.9 1189.88C1774.13 1182.85 1777.75 1174.17 1777.75 1163.84C1777.75 1153.5 1774.13 1144.82 1766.9 1137.79C1759.77 1130.76 1750.67 1127.25 1739.61 1127.25C1728.66 1127.25 1719.56 1130.76 1712.33 1137.79C1705.2 1144.82 1701.63 1153.5 1701.63 1163.84C1701.63 1174.17 1705.2 1182.85 1712.33 1189.88C1719.56 1196.81 1728.66 1200.27 1739.61 1200.27C1750.67 1200.27 1759.77 1196.81 1766.9 1189.88Z" fill="#1F462A"/>
<path d="M1580.35 1089.27C1601.74 1089.27 1619.52 1096.35 1633.68 1110.51C1647.94 1124.67 1655.07 1142.44 1655.07 1163.84C1655.07 1186.26 1647.27 1204.87 1631.66 1219.65C1616.16 1234.32 1595.9 1241.66 1570.89 1241.66C1560.35 1241.66 1550.22 1240.42 1540.51 1237.94C1530.9 1235.56 1523.04 1232.67 1516.94 1229.26C1510.95 1225.85 1505.68 1222.49 1501.13 1219.18C1496.58 1215.77 1493.38 1212.77 1491.52 1210.19L1488.26 1206.62L1516.94 1176.55C1518.39 1178.2 1520.41 1180.27 1522.99 1182.75C1525.68 1185.13 1531.46 1188.38 1540.35 1192.52C1549.24 1196.65 1558.34 1198.72 1567.64 1198.72C1579.52 1198.72 1588.82 1195.51 1595.54 1189.11C1602.36 1182.59 1605.77 1174.17 1605.77 1163.84C1605.77 1153.5 1602.16 1144.82 1594.92 1137.79C1587.79 1130.76 1578.7 1127.25 1567.64 1127.25C1559.99 1127.25 1553.17 1128.7 1547.17 1131.59C1541.18 1134.48 1536.99 1137.38 1534.62 1140.27L1531.21 1144.77L1497.87 1141.67L1505.78 1014.55H1640.65V1055.94H1548.72L1545.47 1097.17C1553.94 1091.9 1565.57 1089.27 1580.35 1089.27Z" fill="#1F462A"/>
<path d="M1394.11 1165.39C1374.16 1165.39 1356.44 1157.58 1340.94 1141.98C1325.54 1126.27 1317.84 1108.13 1317.84 1087.56C1317.84 1065.76 1325.74 1047.36 1341.56 1032.37C1357.47 1017.39 1377.57 1009.89 1401.86 1009.89C1426.25 1009.89 1446.41 1017.39 1462.32 1032.37C1478.24 1047.36 1486.2 1065.76 1486.2 1087.56C1486.2 1096.45 1484.59 1105.44 1481.39 1114.54C1478.19 1123.53 1474.98 1130.25 1471.78 1134.69L1467.13 1141.67L1405.12 1236.85H1355.97L1403.57 1163.84C1400.88 1164.87 1397.73 1165.39 1394.11 1165.39ZM1374.58 1061.67C1367.45 1068.6 1363.88 1077.28 1363.88 1087.72C1363.88 1098.05 1367.45 1106.73 1374.58 1113.76C1381.81 1120.69 1390.91 1124.15 1401.86 1124.15C1412.92 1124.15 1422.07 1120.69 1429.3 1113.76C1436.54 1106.73 1440.15 1098.05 1440.15 1087.72C1440.15 1077.28 1436.54 1068.6 1429.3 1061.67C1422.07 1054.65 1412.92 1051.13 1401.86 1051.13C1390.91 1051.13 1381.81 1054.65 1374.58 1061.67Z" fill="#1F462A"/>
<path d="M1261.67 1014.55H1301.35V1236.85H1253.76V1075.01H1215.62V1044.78C1222.44 1043.95 1228.7 1042.35 1234.38 1039.97C1240.07 1037.49 1244.46 1034.85 1247.56 1032.06C1250.76 1029.27 1253.45 1026.59 1255.62 1024C1257.89 1021.31 1259.5 1019.04 1260.43 1017.18L1261.67 1014.55Z" fill="#1F462A"/>
<path d="M2355.49 1111.71C2375.43 1111.71 2393.11 1119.57 2408.51 1135.28C2423.9 1150.88 2431.6 1168.97 2431.6 1189.54C2431.6 1211.34 2423.65 1229.79 2407.73 1244.88C2391.92 1259.87 2371.82 1267.36 2347.42 1267.36C2323.14 1267.36 2303.04 1259.87 2287.12 1244.88C2271.31 1229.79 2263.4 1211.34 2263.4 1189.54C2263.4 1180.65 2264.95 1171.71 2268.05 1162.72C2271.26 1153.73 2274.46 1147.01 2277.66 1142.56L2282.47 1135.59L2344.32 1040.25H2393.62L2345.87 1113.26C2348.67 1112.23 2351.87 1111.71 2355.49 1111.71ZM2374.71 1215.58C2381.94 1208.55 2385.56 1199.87 2385.56 1189.54C2385.56 1179.2 2381.94 1170.52 2374.71 1163.49C2367.58 1156.46 2358.48 1152.95 2347.42 1152.95C2336.47 1152.95 2327.37 1156.46 2320.14 1163.49C2313.01 1170.52 2309.44 1179.2 2309.44 1189.54C2309.44 1199.87 2313.01 1208.55 2320.14 1215.58C2327.37 1222.51 2336.47 1225.97 2347.42 1225.97C2358.48 1225.97 2367.58 1222.51 2374.71 1215.58Z" fill="#1F462A"/>
<path d="M2188.16 1114.97C2209.55 1114.97 2227.33 1122.05 2241.49 1136.21C2255.75 1150.37 2262.88 1168.14 2262.88 1189.54C2262.88 1211.96 2255.08 1230.57 2239.47 1245.35C2223.97 1260.02 2203.71 1267.36 2178.7 1267.36C2168.16 1267.36 2158.03 1266.12 2148.32 1263.64C2138.71 1261.26 2130.85 1258.37 2124.75 1254.96C2118.76 1251.55 2113.49 1248.19 2108.94 1244.88C2104.39 1241.47 2101.19 1238.47 2099.33 1235.89L2096.07 1232.32L2124.75 1202.25C2126.2 1203.9 2128.22 1205.97 2130.8 1208.45C2133.49 1210.83 2139.28 1214.08 2148.16 1218.22C2157.05 1222.35 2166.15 1224.42 2175.45 1224.42C2187.33 1224.42 2196.63 1221.21 2203.35 1214.81C2210.17 1208.29 2213.58 1199.87 2213.58 1189.54C2213.58 1179.2 2209.97 1170.52 2202.73 1163.49C2195.6 1156.46 2186.51 1152.95 2175.45 1152.95C2167.8 1152.95 2160.98 1154.4 2154.98 1157.29C2148.99 1160.18 2144.8 1163.08 2142.43 1165.97L2139.02 1170.47L2105.69 1167.37L2113.59 1040.25H2248.47V1081.64H2156.53L2153.28 1122.87C2161.75 1117.6 2173.38 1114.97 2188.16 1114.97Z" fill="#1F462A"/>
<path d="M2001.92 1191.09C1981.97 1191.09 1964.25 1183.28 1948.75 1167.68C1933.35 1151.97 1925.65 1133.83 1925.65 1113.26C1925.65 1091.46 1933.55 1073.06 1949.37 1058.07C1965.28 1043.09 1985.38 1035.59 2009.67 1035.59C2034.06 1035.59 2054.22 1043.09 2070.13 1058.07C2086.05 1073.06 2094.01 1091.46 2094.01 1113.26C2094.01 1122.15 2092.4 1131.14 2089.2 1140.24C2086 1149.23 2082.79 1155.95 2079.59 1160.39L2074.94 1167.37L2012.93 1262.55H1963.78L2011.38 1189.54C2008.69 1190.57 2005.54 1191.09 2001.92 1191.09ZM1982.39 1087.37C1975.26 1094.3 1971.69 1102.98 1971.69 1113.42C1971.69 1123.75 1975.26 1132.44 1982.39 1139.46C1989.62 1146.39 1998.72 1149.85 2009.67 1149.85C2020.73 1149.85 2029.88 1146.39 2037.11 1139.46C2044.35 1132.44 2047.96 1123.75 2047.96 1113.42C2047.96 1102.98 2044.35 1094.3 2037.11 1087.37C2029.88 1080.35 2020.73 1076.83 2009.67 1076.83C1998.72 1076.83 1989.62 1080.35 1982.39 1087.37Z" fill="#1F462A"/>
<path d="M1869.48 1040.25H1909.16V1262.55H1861.57V1100.71H1823.43V1070.48C1830.26 1069.65 1836.51 1068.05 1842.19 1065.67C1847.88 1063.19 1852.27 1060.55 1855.37 1057.76C1858.57 1054.97 1861.26 1052.29 1863.43 1049.7C1865.7 1047.02 1867.31 1044.74 1868.24 1042.88L1869.48 1040.25Z" fill="#1F462A"/>
</g>
</svg>
