<svg width="33" height="33" viewBox="0 0 33 33" fill="none" xmlns="http://www.w3.org/2000/svg">
<mask id="mask0_32_207" style="mask-type:luminance" maskUnits="userSpaceOnUse" x="0" y="0" width="33" height="33">
<path d="M31.5 31.5V1.5H1.5V31.5H31.5Z" fill="white" stroke="white" stroke-width="3"/>
</mask>
<g mask="url(#mask0_32_207)">
<path d="M4.01208 7.81481C3.52407 8.51498 3.09594 9.25502 2.73223 10.0271M15.2225 31.6571C15.6474 31.6927 16.0736 31.7107 16.5 31.7109C16.9304 31.7109 17.3563 31.6921 17.7776 31.6571M1.34295 15.2225C1.3073 15.6474 1.28932 16.0736 1.28906 16.5C1.28906 16.9304 1.30788 17.3563 1.34295 17.7775M2.73223 22.9729C3.09598 23.745 3.52411 24.485 4.01208 25.1852M7.81481 28.9879C8.515 29.4759 9.25507 29.9041 10.0272 30.2678M10.0272 2.73223C9.25507 3.09594 8.515 3.52407 7.81481 4.01208M31.6571 17.7775C31.6921 17.3563 31.7109 16.9304 31.7109 16.5C31.7109 8.09924 24.9008 1.28906 16.5 1.28906C16.0697 1.28906 15.6438 1.30788 15.2225 1.34295M22.9729 30.2678C23.745 29.904 24.4851 29.4759 25.1853 28.9879M28.988 25.1852C29.476 24.485 29.9041 23.745 30.2678 22.9729M16.5 13.9649V6.3594M16.5 13.9649C15.0999 13.9649 13.9649 15.0998 13.9649 16.5C13.9649 17.9002 15.0999 19.0351 16.5 19.0351C17.9002 19.0351 19.0352 17.9002 19.0352 16.5M16.5 13.9649C17.9002 13.9649 19.0352 15.0998 19.0352 16.5M19.0352 16.5H26.6407" stroke="#646D5C" stroke-width="3" strokeMiterlimit="10" strokeLinecap="round" strokeLinejoin="round"/>
</g>
</svg>
