<svg xmlns="http://www.w3.org/2000/svg" width="25" height="25" viewBox="0 0 26 26" fill="none">
  <g clip-path="url(#clip0_182_42)">
    <path d="M24.2969 9.98773C24.2969 9.78992 24.258 9.59404 24.1822 9.4113C24.1065 9.22856 23.9955 9.06255 23.8555 8.92276C23.7158 8.78281 23.5497 8.67181 23.367 8.59608C23.1843 8.52035 22.9884 8.4814 22.7906 8.48145H3.20941C3.0116 8.4814 2.81572 8.52035 2.63298 8.59608C2.45024 8.67181 2.28424 8.78281 2.14445 8.92276C2.00449 9.06255 1.89349 9.22856 1.81776 9.4113C1.74203 9.59404 1.70308 9.78992 1.70313 9.98773V12.2471C1.70307 12.4449 1.74201 12.6407 1.81774 12.8235C1.89347 13.0062 2.00448 13.1722 2.14445 13.312C2.28424 13.4519 2.45024 13.563 2.63298 13.6387C2.81571 13.7144 3.0116 13.7534 3.20941 13.7533H22.7906C22.9884 13.7534 23.1843 13.7144 23.367 13.6387C23.5497 13.563 23.7158 13.4519 23.8555 13.312C23.9955 13.1722 24.1065 13.0062 24.1823 12.8235C24.258 12.6407 24.2969 12.4449 24.2969 12.2471V9.98773Z" stroke="currentColor" stroke-width="1.5" stroke-miterlimit="10" stroke-linecap="round" stroke-linejoin="round"/>
    <path d="M9.9873 13.7543H16.0123V8.48242H9.9873V13.7543ZM10.7404 24.2981H15.2592V13.7543H10.7404V24.2981Z" stroke="currentColor" stroke-width="1.5" stroke-miterlimit="10" stroke-linecap="round" stroke-linejoin="round"/>
    <path d="M22.7902 13.7539H3.20898V22.7914C3.20893 22.9892 3.24788 23.1851 3.3236 23.3678C3.39933 23.5505 3.51035 23.7165 3.65031 23.8563C3.79008 23.9963 3.95607 24.1073 4.13879 24.183C4.32152 24.2588 4.51738 24.2977 4.71517 24.2977H21.2839C21.4817 24.2977 21.6776 24.2588 21.8603 24.183C22.0431 24.1073 22.2091 23.9963 22.3488 23.8563C22.4888 23.7165 22.5998 23.5505 22.6755 23.3678C22.7513 23.185 22.7902 22.9892 22.7902 22.7914V13.7539Z" stroke="currentColor" stroke-width="1.5" stroke-miterlimit="10" stroke-linecap="round" stroke-linejoin="round"/>
    <path d="M13.0004 8.48222H7.35195C5.48005 8.48222 3.96289 6.96507 3.96289 5.09316C3.96289 3.2213 5.48005 1.7041 7.35195 1.7041H7.68706C10.6216 1.7041 13.0004 4.08286 13.0004 7.01742M13.0004 8.48222V7.01742M13.0004 8.48222H18.6488C20.5207 8.48222 22.0379 6.96507 22.0379 5.09316C22.0379 3.2213 20.5207 1.7041 18.6488 1.7041H18.3137C15.3792 1.7041 13.0004 4.08286 13.0004 7.01742" stroke="currentColor" stroke-width="1.5" stroke-miterlimit="10" stroke-linecap="round" stroke-linejoin="round"/>
  </g>
  <defs>
    <clipPath id="clip0_182_42">
      <rect width="26" height="26" fill="white"/>
    </clipPath>
  </defs>
</svg>