<svg id='img' width="24" height="24" viewBox="0 0 24 24" fill="none" xmlns="http://www.w3.org/2000/svg">
<mask id="mask0_13_6" style="mask-type:luminance" maskUnits="userSpaceOnUse" x="0" y="0" width="24" height="25">
<path d="M23.25 23.2515V0.751465H0.75V23.2515H23.25Z" fill='currentColor' stroke="currentColor" stroke-width="1.5"/>
</mask>
<g mask="url(#mask0_13_6)">
<path d="M23.0625 16.6108H19.4219C17.8686 16.6108 16.6094 17.87 16.6094 19.4233V23.064M23.0625 16.6108C23.0625 17.1954 22.9474 17.7742 22.7237 18.3142C22.5 18.8543 22.1721 19.345 21.7588 19.7583L19.7568 21.7602C19.3435 22.1736 18.8528 22.5015 18.3128 22.7251C17.7727 22.9488 17.1939 23.064 16.6094 23.064M23.0625 16.6108V5.6335C23.0625 4.38843 22.5679 3.19436 21.6875 2.31395C20.8071 1.43358 19.613 0.938985 18.368 0.938965H5.63203C4.38697 0.938985 3.1929 1.43358 2.31248 2.31395C1.43211 3.19436 0.937519 4.38843 0.9375 5.6335V18.3694C0.937519 19.6145 1.43211 20.8086 2.31248 21.689C3.1929 22.5694 4.38697 23.0639 5.63203 23.064H16.6094M6.46875 17.5327H12M6.46875 6.47022H17.5312M6.46875 12.0015H17.5312" stroke="currentColor" stroke-width="1.5" strokeMiterlimit="10" strokeLinecap="round" strokeLinejoin="round"/>
</g>
</svg>
