<svg width="52" height="53" viewBox="0 0 52 53" fill="none" xmlns="http://www.w3.org/2000/svg">
<path d="M35.079 4.8335H16.9223C9.03565 4.8335 4.33398 9.53516 4.33398 17.4218V35.5568C4.33398 43.4652 9.03565 48.1668 16.9223 48.1668H35.0573C42.944 48.1668 47.6457 43.4652 47.6457 35.5785V17.4218C47.6673 9.53516 42.9657 4.8335 35.079 4.8335ZM33.2807 31.4835C33.909 32.1118 33.909 33.1518 33.2807 33.7802C32.9557 34.1052 32.544 34.2568 32.1323 34.2568C31.7207 34.2568 31.309 34.1052 30.984 33.7802L26.0007 28.7968L21.0173 33.7802C20.6923 34.1052 20.2807 34.2568 19.869 34.2568C19.4573 34.2568 19.0457 34.1052 18.7207 33.7802C18.0923 33.1518 18.0923 32.1118 18.7207 31.4835L23.704 26.5002L18.7207 21.5168C18.0923 20.8885 18.0923 19.8485 18.7207 19.2202C19.349 18.5918 20.389 18.5918 21.0173 19.2202L26.0007 24.2035L30.984 19.2202C31.6123 18.5918 32.6523 18.5918 33.2807 19.2202C33.909 19.8485 33.909 20.8885 33.2807 21.5168L28.2973 26.5002L33.2807 31.4835Z" fill="#82FF48"/>
</svg>
